<?xml version="1.0" encoding="UTF-8" standalone="no"?>
<svg
   xmlns:dc="http://purl.org/dc/elements/1.1/"
   xmlns:cc="http://creativecommons.org/ns#"
   xmlns:rdf="http://www.w3.org/1999/02/22-rdf-syntax-ns#"
   xmlns:svg="http://www.w3.org/2000/svg"
   xmlns="http://www.w3.org/2000/svg"
   xmlns:sodipodi="http://sodipodi.sourceforge.net/DTD/sodipodi-0.dtd"
   xmlns:inkscape="http://www.inkscape.org/namespaces/inkscape"
   width="49.712212mm"
   height="10.683584mm"
   viewBox="0 0 49.712212 10.683584"
   version="1.1"
   id="svg8"
   inkscape:version="1.0.1 (1.0.1+r75)"
   sodipodi:docname="logo.svg">
  <defs
     id="defs2" />
  <sodipodi:namedview
     id="base"
     pagecolor="#ffffff"
     bordercolor="#666666"
     borderopacity="1.0"
     inkscape:pageopacity="0.0"
     inkscape:pageshadow="2"
     inkscape:zoom="1.979899"
     inkscape:cx="100.56268"
     inkscape:cy="56.922693"
     inkscape:document-units="mm"
     inkscape:current-layer="layer1"
     inkscape:document-rotation="0"
     showgrid="false"
     fit-margin-top="0"
     fit-margin-left="0"
     fit-margin-right="0"
     fit-margin-bottom="0"
     inkscape:window-width="1366"
     inkscape:window-height="713"
     inkscape:window-x="0"
     inkscape:window-y="27"
     inkscape:window-maximized="1" />
  <metadata
     id="metadata5">
    <rdf:RDF>
      <cc:Work
         rdf:about="">
        <dc:format>image/svg+xml</dc:format>
        <dc:type
           rdf:resource="http://purl.org/dc/dcmitype/StillImage" />
        <dc:title />
      </cc:Work>
    </rdf:RDF>
  </metadata>
  <g
     inkscape:label="Layer 1"
     inkscape:groupmode="layer"
     id="layer1"
     transform="translate(141.54691,-33.616553)">
    <path
       id="rect837"
       style="fill:#3b82f6;fill-opacity:1;stroke-width:1.03039;stroke-linecap:round;stroke-linejoin:round"
       d="m -399.20508,127.05469 c -3.95954,0 -7.14648,3.18696 -7.14648,7.14648 v 6.78711 l -7.1836,3.91016 7.1836,3.89844 v 9.14062 c 0,3.95952 3.18694,7.14844 7.14648,7.14844 h 44.9668 c 3.95952,0 7.14648,-3.18892 7.14648,-7.14844 v -23.73633 c 0,-3.95952 -3.18696,-7.14648 -7.14648,-7.14648 z m -135.77539,4.41992 v 2.56055 h 9.83985 v 25.43945 h 2.95898 v -25.43945 h 9.83984 v -2.56055 z m 133.54883,0 h 6.43945 v 13.08008 l 12.40039,-13.08008 h 7.20118 l -11.60157,12.48047 12.28125,15.51953 h -7.56054 l -8.95899,-11 -3.76172,3.91992 v 7.08008 h -6.43945 z m 28.3457,6.48047 h 6.24024 v 11.23828 c 0,3.46666 1.45469,5.20117 4.36132,5.20117 1.49333,0 2.69295,-0.47945 3.59961,-1.43945 0.90667,-0.98667 1.35938,-2.44134 1.35938,-4.36133 v -10.63867 h 6.24023 v 21.51953 h -5.91992 v -2.56055 c -0.82666,0.93333 -1.81427,1.65349 -2.96094,2.16016 -1.14666,0.48 -2.38542,0.7207 -3.71875,0.7207 -2.82665,0 -5.06737,-0.81474 -6.7207,-2.4414 -1.65333,-1.62667 -2.48047,-4.0383 -2.48047,-7.23829 z m -100.28125,0.31836 c -2,0 -3.80039,0.42792 -5.40039,1.28125 -1.6,0.85333 -2.86551,2.05295 -3.79883,3.59961 -0.90668,1.54666 -1.35937,3.30597 -1.35937,5.27929 0,1.97333 0.45269,3.74699 1.35937,5.32032 0.93332,1.54666 2.19883,2.76062 3.79883,3.64062 1.62666,0.85333 3.42705,1.2793 5.40039,1.2793 1.73332,0 3.30739,-0.34573 4.72071,-1.03906 1.44,-0.69334 2.60046,-1.70769 3.48046,-3.04102 v 2.67969 c 0,2.61332 -0.62754,4.53505 -1.88086,5.76172 -1.25334,1.25333 -3.21224,1.8789 -5.8789,1.8789 -1.6,0 -3.13491,-0.2531 -4.60156,-0.75976 -1.44,-0.50667 -2.66637,-1.21248 -3.67969,-2.11914 l -1.43945,2.1582 c 1.09334,1.01333 2.50691,1.80133 4.24023,2.36133 1.76,0.58666 3.61389,0.8789 5.56055,0.8789 3.51997,0 6.14556,-0.86628 7.8789,-2.59961 1.76,-1.70666 2.64063,-4.34659 2.64063,-7.91992 v -18.48047 h -2.72071 v 4.04102 c -0.88,-1.36 -2.04046,-2.4011 -3.48046,-3.12109 -1.43998,-0.72 -3.05319,-1.08008 -4.83985,-1.08008 z m 26.3418,0 c -1.65332,0 -3.22543,0.25505 -4.71875,0.76172 -1.49334,0.48 -2.77319,1.17341 -3.83984,2.08007 l 1.27929,2.11915 c 0.88,-0.77334 1.9335,-1.37412 3.16016,-1.80079 1.22668,-0.45333 2.50653,-0.67968 3.83984,-0.67968 1.94666,0 3.42611,0.48141 4.43946,1.4414 1.01331,0.93333 1.51953,2.30582 1.51953,4.11914 v 1.2793 h -6.67969 c -2.82666,0 -4.89256,0.5473 -6.19922,1.64063 -1.28,1.09332 -1.91992,2.53365 -1.91992,4.32031 0,1.83999 0.69342,3.31946 2.08008,4.43945 1.38668,1.12 3.25295,1.67969 5.59961,1.67969 1.70665,0 3.17373,-0.30659 4.40039,-0.91992 1.25331,-0.61334 2.19984,-1.46722 2.83984,-2.56055 v 3.28125 h 2.7207 v -13.04102 c 0,-2.69332 -0.73451,-4.72008 -2.20117,-6.08007 -1.46668,-1.38667 -3.57365,-2.08008 -6.32031,-2.08008 z m 22.39453,0 c -2.61332,0 -4.65441,0.56164 -6.12109,1.68164 -1.46666,1.12 -2.19922,2.55836 -2.19922,4.31836 0,1.41333 0.36008,2.52031 1.08008,3.32031 0.74665,0.8 1.63968,1.37404 2.67968,1.7207 1.04,0.32 2.41444,0.63899 4.1211,0.95899 1.28,0.21333 2.30673,0.44164 3.08008,0.68164 0.77331,0.21333 1.41326,0.54667 1.91992,1 0.50668,0.42666 0.75976,1.02549 0.75976,1.79883 0,1.09333 -0.46705,1.94721 -1.40039,2.56054 -0.90666,0.58667 -2.32023,0.87891 -4.24023,0.87891 -1.44,0 -2.82684,-0.21201 -4.16016,-0.63867 -1.33334,-0.45333 -2.44031,-1.02737 -3.32031,-1.72071 l -1.2793,2.24024 c 0.88,0.74666 2.09397,1.37419 3.64063,1.88086 1.57331,0.48 3.21324,0.71875 4.91992,0.71875 2.71997,0 4.83937,-0.53295 6.35937,-1.59961 1.54666,-1.09333 2.32032,-2.5604 2.32032,-4.40039 0,-1.36 -0.36008,-2.42589 -1.08008,-3.19922 -0.72,-0.77333 -1.58629,-1.32063 -2.59961,-1.64063 -1.01334,-0.32 -2.36102,-0.63898 -4.04102,-0.95898 -1.35997,-0.23999 -2.42587,-0.4683 -3.19921,-0.68164 -0.77332,-0.24 -1.4276,-0.59813 -1.96094,-1.07813 -0.50666,-0.47999 -0.75977,-1.11992 -0.75977,-1.91992 0,-1.03999 0.45272,-1.88148 1.35938,-2.52148 0.93331,-0.64 2.30775,-0.95899 4.12109,-0.95899 2.4,0 4.4659,0.59883 6.19922,1.79883 l 1.24023,-2.27929 c -0.88,-0.58667 -1.99937,-1.05373 -3.35937,-1.4004 -1.35998,-0.37333 -2.72008,-0.56054 -4.08008,-0.56054 z m -84.32812,0.16015 v 12.20118 c 0,2.95999 0.78605,5.2131 2.35937,6.75976 1.6,1.52 3.77287,2.2793 6.51953,2.2793 1.68,0 3.17381,-0.34573 4.48047,-1.03906 1.30666,-0.72 2.33342,-1.72001 3.08008,-3 v 3.83984 h 2.7207 v -21.04102 h -2.84179 v 11.04102 c 0,2.39999 -0.63995,4.28063 -1.91993,5.64062 -1.28,1.33333 -3.02494,2 -5.23828,2 -2.02666,0 -3.58832,-0.57404 -4.68164,-1.7207 -1.09334,-1.14666 -1.63867,-2.82769 -1.63867,-5.04101 v -11.91993 z m 35.87304,2.32032 c 1.54666,0 2.91914,0.33333 4.11914,1 1.22666,0.63999 2.17319,1.54737 2.83985,2.7207 0.69334,1.14666 1.04101,2.46565 1.04101,3.95898 0,1.49333 -0.34767,2.82667 -1.04101,4 -0.66666,1.17333 -1.61319,2.0931 -2.83985,2.75977 -1.22666,0.64 -2.59914,0.96094 -4.11914,0.96094 -1.52,0 -2.89443,-0.32094 -4.12109,-0.96094 -1.2,-0.66667 -2.1465,-1.58644 -2.83985,-2.75977 -0.66665,-1.17333 -1,-2.50667 -1,-4 0,-1.49333 0.33335,-2.82667 1,-4 0.69335,-1.17333 1.63985,-2.07875 2.83985,-2.71875 1.22666,-0.64 2.60109,-0.96093 4.12109,-0.96093 z m 25.14063,8.96093 h 6.59961 v 3.43946 c -0.56,1.38666 -1.41194,2.45255 -2.5586,3.19922 -1.14666,0.71999 -2.52109,1.08007 -4.12109,1.08007 -1.68,0 -2.98661,-0.34573 -3.91992,-1.03906 -0.93334,-0.72 -1.40039,-1.69326 -1.40039,-2.91992 0,-2.50666 1.80039,-3.75977 5.40039,-3.75977 z"
       transform="scale(0.26458333)" />
  </g>
</svg>
